# xmcd
#
# Track frame offsets: 
#        150
#        13613
#        29098
#        52907
#        68218
#        91497
#        111739
#        132548
#        145337
#
# Disc length: 2168 seconds
#
# Revision: 0
# Processed by: cddbd v1.5.2PL0 Copyright (c) Steve Scherf et al.
# Submitted via: ExactAudioCopy v0.99pb3
#
DISCID=88087609
DTITLE=Kathi McDonald and Rich Kirch - Nothin' But Trouble
DYEAR=2011
DGENRE=Blues
TTITLE0=Rollin' and Tumblin'
TTITLE1=Talk To Me Baby
TTITLE2=Trouble
TTITLE3=Wang Dang Doodle
TTITLE4=Big Leg Woman
TTITLE5=Baby What Do You Want Me To Do
TTITLE6=What I Say
TTITLE7=Shake Your Money Maker
TTITLE8=Shake Your Hips
EXTD=
EXTT0=
EXTT1=
EXTT2=
EXTT3=
EXTT4=
EXTT5=
EXTT6=
EXTT7=
EXTT8=
PLAYORDER=
